  0
SECTION
  2
HEADER
  9
$ACADVER
  1
AC1015
  9
$ACADMAINTVER
 70
     6
  9
$DWGCODEPAGE
  3
ANSI_1252
  9
$INSBASE
 10
0.0
 20
0.0
 30
0.0
  9
$EXTMIN
 10
0.0
 20
0.0
 30
0.0
  9
$EXTMAX
 10
300.0
 20
330.0
 30
0.0
  9
$LIMMIN
 10
0.0
 20
0.0
  9
$LIMMAX
 10
300.0
 20
330.0
  9
$ORTHOMODE
 70
     0
  9
$REGENMODE
 70
     1
  9
$FILLMODE
 70
     1
  9
$QTEXTMODE
 70
     0
  9
$MIRRTEXT
 70
     1
  9
$LTSCALE
 40
1.0
  9
$ATTMODE
 70
     1
  9
$TEXTSIZE
 40
3.175
  9
$TRACEWID
 40
1.0
  9
$TEXTSTYLE
  7
Standard
  9
$CLAYER
  8
0
  9
$CELTYPE
  6
ByLayer
  9
$CECOLOR
 62
   256
  9
$CELTSCALE
 40
1.0
  9
$DISPSILH
 70
     0
  9
$DIMSCALE
 40
1.0
  9
$DIMASZ
 40
3.302
  9
$DIMEXO
 40
1.27
  9
$DIMDLI
 40
3.75
  9
$DIMRND
 40
0.0
  9
$DIMDLE
 40
0.0
  9
$DIMEXE
 40
3.175
  9
$DIMTP
 40
0.0
  9
$DIMTM
 40
0.0
  9
$DIMTXT
 40
3.175
  9
$DIMCEN
 40
2.5
  9
$DIMTSZ
 40
0.0
  9
$DIMTOL
 70
     0
  9
$DIMLIM
 70
     0
  9
$DIMTIH
 70
     1
  9
$DIMTOH
 70
     1
  9
$DIMSE1
 70
     0
  9
$DIMSE2
 70
     0
  9
$DIMTAD
 70
     0
  9
$DIMZIN
 70
     0
  9
$DIMBLK
  1

  9
$DIMASO
 70
     1
  9
$DIMSHO
 70
     1
  9
$DIMPOST
  1

  9
$DIMAPOST
  1

  9
$DIMALT
 70
     0
  9
$DIMALTD
 70
     3
  9
$DIMALTF
 40
0.0393700787
  9
$DIMLFAC
 40
1.0
  9
$DIMTOFL
 70
     1
  9
$DIMTVP
 40
0.0
  9
$DIMTIX
 70
     0
  9
$DIMSOXD
 70
     0
  9
$DIMSAH
 70
     0
  9
$DIMBLK1
  1

  9
$DIMBLK2
  1

  9
$DIMSTYLE
  2
ISO-25
  9
$DIMCLRD
 70
     0
  9
$DIMCLRE
 70
     0
  9
$DIMCLRT
 70
     0
  9
$DIMTFAC
 40
1.0
  9
$DIMGAP
 40
1.524
  9
$DIMJUST
 70
     0
  9
$DIMSD1
 70
     0
  9
$DIMSD2
 70
     0
  9
$DIMTOLJ
 70
     0
  9
$DIMTZIN
 70
     0
  9
$DIMALTZ
 70
     0
  9
$DIMALTTZ
 70
     0
  9
$DIMUPT
 70
     0
  9
$DIMDEC
 70
     2
  9
$DIMTDEC
 70
     2
  9
$DIMALTU
 70
     2
  9
$DIMALTTD
 70
     3
  9
$DIMTXSTY
  7
Standard
  9
$DIMAUNIT
 70
     0
  9
$DIMADEC
 70
     2
  9
$DIMALTRND
 40
0.0
  9
$DIMAZIN
 70
     0
  9
$DIMDSEP
 70
    44
  9
$DIMATFIT
 70
     3
  9
$DIMFRAC
 70
     0
  9
$DIMLDRBLK
  1

  9
$DIMLUNIT
 70
     2
  9
$DIMLWD
 70
    -2
  9
$DIMLWE
 70
    -2
  9
$DIMTMOVE
 70
     0
  9
$LUNITS
 70
     2
  9
$LUPREC
 70
     2
  9
$SKETCHINC
 40
1.0
  9
$FILLETRAD
 40
10.0
  9
$AUNITS
 70
     0
  9
$AUPREC
 70
     2
  9
$MENU
  1
.
  9
$ELEVATION
 40
0.0
  9
$PELEVATION
 40
0.0
  9
$THICKNESS
 40
0.0
  9
$LIMCHECK
 70
     0
  9
$CHAMFERA
 40
10.0
  9
$CHAMFERB
 40
10.0
  9
$CHAMFERC
 40
20.0
  9
$CHAMFERD
 40
0.0
  9
$SKPOLY
 70
     0
  9
$TDCREATE
 40
2456646.261171516
  9
$TDUCREATE
 40
2456646.46950485
  9
$TDUPDATE
 40
2456646.261171713
  9
$TDUUPDATE
 40
2456646.469505046
  9
$TDINDWG
 40
0.0000000116
  9
$TDUSRTIMER
 40
0.0000000116
  9
$USRTIMER
 70
     1
  9
$ANGBASE
 50
0.0
  9
$ANGDIR
 70
     0
  9
$PDMODE
 70
     0
  9
$PDSIZE
 40
-1.0
  9
$PLINEWID
 40
0.0
  9
$SPLFRAME
 70
     0
  9
$SPLINETYPE
 70
     6
  9
$SPLINESEGS
 70
     8
  9
$HANDSEED
  5
15B
  9
$SURFTAB1
 70
     6
  9
$SURFTAB2
 70
     6
  9
$SURFTYPE
 70
     6
  9
$SURFU
 70
     6
  9
$SURFV
 70
     6
  9
$UCSBASE
  2

  9
$UCSNAME
  2

  9
$UCSORG
 10
0.0
 20
0.0
 30
0.0
  9
$UCSXDIR
 10
1.0
 20
0.0
 30
0.0
  9
$UCSYDIR
 10
0.0
 20
1.0
 30
0.0
  9
$UCSORTHOREF
  2

  9
$UCSORTHOVIEW
 70
     0
  9
$UCSORGTOP
 10
0.0
 20
0.0
 30
0.0
  9
$UCSORGBOTTOM
 10
0.0
 20
0.0
 30
0.0
  9
$UCSORGLEFT
 10
0.0
 20
0.0
 30
0.0
  9
$UCSORGRIGHT
 10
0.0
 20
0.0
 30
0.0
  9
$UCSORGFRONT
 10
0.0
 20
0.0
 30
0.0
  9
$UCSORGBACK
 10
0.0
 20
0.0
 30
0.0
  9
$PUCSBASE
  2

  9
$PUCSNAME
  2

  9
$PUCSORG
 10
0.0
 20
0.0
 30
0.0
  9
$PUCSXDIR
 10
1.0
 20
0.0
 30
0.0
  9
$PUCSYDIR
 10
0.0
 20
1.0
 30
0.0
  9
$PUCSORTHOREF
  2

  9
$PUCSORTHOVIEW
 70
     0
  9
$PUCSORGTOP
 10
0.0
 20
0.0
 30
0.0
  9
$PUCSORGBOTTOM
 10
0.0
 20
0.0
 30
0.0
  9
$PUCSORGLEFT
 10
0.0
 20
0.0
 30
0.0
  9
$PUCSORGRIGHT
 10
0.0
 20
0.0
 30
0.0
  9
$PUCSORGFRONT
 10
0.0
 20
0.0
 30
0.0
  9
$PUCSORGBACK
 10
0.0
 20
0.0
 30
0.0
  9
$USERI1
 70
     0
  9
$USERI2
 70
     0
  9
$USERI3
 70
     0
  9
$USERI4
 70
     0
  9
$USERI5
 70
     0
  9
$USERR1
 40
0.0
  9
$USERR2
 40
0.0
  9
$USERR3
 40
0.0
  9
$USERR4
 40
0.0
  9
$USERR5
 40
0.0
  9
$WORLDVIEW
 70
     1
  9
$SHADEDGE
 70
     3
  9
$SHADEDIF
 70
    70
  9
$TILEMODE
 70
     1
  9
$MAXACTVP
 70
    64
  9
$PINSBASE
 10
0.0
 20
0.0
 30
0.0
  9
$PLIMCHECK
 70
     0
  9
$PEXTMIN
 10
1.0000000000E+20
 20
1.0000000000E+20
 30
1.0000000000E+20
  9
$PEXTMAX
 10
-1.0000000000E+20
 20
-1.0000000000E+20
 30
-1.0000000000E+20
  9
$PLIMMIN
 10
0.0
 20
0.0
  9
$PLIMMAX
 10
420.0
 20
297.0
  9
$UNITMODE
 70
     0
  9
$VISRETAIN
 70
     1
  9
$PLINEGEN
 70
     0
  9
$PSLTSCALE
 70
     1
  9
$TREEDEPTH
 70
  3020
  9
$CMLSTYLE
  2
Standard
  9
$CMLJUST
 70
     0
  9
$CMLSCALE
 40
20.0
  9
$PROXYGRAPHICS
 70
     1
  9
$MEASUREMENT
 70
     1
  9
$CELWEIGHT
370
    -1
  9
$ENDCAPS
280
     0
  9
$JOINSTYLE
280
     0
  9
$LWDISPLAY
290
     1
  9
$INSUNITS
 70
     4
  9
$HYPERLINKBASE
  1

  9
$STYLESHEET
  1

  9
$XEDIT
290
     1
  9
$CEPSNTYPE
380
     0
  9
$PSTYLEMODE
290
     1
  9
$FINGERPRINTGUID
  2
{CEFC253D-064E-4F4E-AD38-B585E9D1D166}
  9
$VERSIONGUID
  2
{FAEB1C32-E019-11D5-929B-00C0DF256EC4}
  9
$EXTNAMES
290
     1
  9
$PSVPSCALE
 40
0.0
  9
$OLESTARTUP
290
     0
  0
ENDSEC
  0
SECTION
  2
CLASSES
  0
CLASS
  1
ACDBDICTIONARYWDFLT
  2
AcDbDictionaryWithDefault
  3
ObjectDBX Classes
 90
        0
280
     0
281
     0
  0
CLASS
  1
VISUALSTYLE
  2
AcDbVisualStyle
  3
ObjectDBX Classes
 90
     4095
280
     0
281
     0
  0
CLASS
  1
MATERIAL
  2
AcDbMaterial
  3
ObjectDBX Classes
 90
     1153
280
     0
281
     0
  0
CLASS
  1
ACDBPLACEHOLDER
  2
AcDbPlaceHolder
  3
ObjectDBX Classes
 90
        0
280
     0
281
     0
  0
CLASS
  1
LAYOUT
  2
AcDbLayout
  3
ObjectDBX Classes
 90
        0
280
     0
281
     0
  0
ENDSEC
  0
SECTION
  2
TABLES
  0
TABLE
  2
VPORT
  5
8
330
0
100
AcDbSymbolTable
 70
     1
  0
VPORT
  5
29
330
8
100
AcDbSymbolTableRecord
100
AcDbViewportTableRecord
  2
*Active
 70
     0
 10
0.0
 20
0.0
 11
1.0
 21
1.0
 12
150.0
 22
165.0
 13
0.0
 23
0.0
 14
10.0
 24
10.0
 15
10.0
 25
10.0
 16
0.0
 26
0.0
 36
1.0
 17
0.0
 27
0.0
 37
0.0
 40
330.0
 41
0.9090909091
 42
50.0
 43
0.0
 44
0.0
 50
0.0
 51
0.0
 71
     0
 72
  2000
 73
     1
 74
     3
 75
     0
 76
     0
 77
     0
 78
     0
281
     0
 65
     1
110
0.0
120
0.0
130
0.0
111
1.0
121
0.0
131
0.0
112
0.0
122
1.0
132
0.0
 79
     0
146
0.0
  0
ENDTAB
  0
TABLE
  2
LTYPE
  5
5
330
0
100
AcDbSymbolTable
 70
     6
  0
LTYPE
  5
14
330
5
100
AcDbSymbolTableRecord
100
AcDbLinetypeTableRecord
  2
ByBlock
 70
     0
  3

 72
    65
 73
     0
 40
0.0
  0
LTYPE
  5
15
330
5
100
AcDbSymbolTableRecord
100
AcDbLinetypeTableRecord
  2
ByLayer
 70
     0
  3

 72
    65
 73
     0
 40
0.0
  0
LTYPE
  5
16
330
5
100
AcDbSymbolTableRecord
100
AcDbLinetypeTableRecord
  2
Continuous
 70
     0
  3
Solid line
 72
    65
 73
     0
 40
0.0
  0
LTYPE
  5
3F
330
5
100
AcDbSymbolTableRecord
100
AcDbLinetypeTableRecord
  2
HIDDEN
 70
     0
  3
Hidden __ __ __ __ __ __ __ __ __ __ __ __ __ __
 72
    65
 73
     2
 40
1.905
 49
1.27
 74
     0
 49
-0.635
 74
     0
  0
LTYPE
  5
40
330
5
100
AcDbSymbolTableRecord
100
AcDbLinetypeTableRecord
  2
PHANTOM
 70
     0
  3
Phantom ______  __  __  ______  __  __  ______
 72
    65
 73
     6
 40
12.7
 49
6.35
 74
     0
 49
-1.27
 74
     0
 49
1.27
 74
     0
 49
-1.27
 74
     0
 49
1.27
 74
     0
 49
-1.27
 74
     0
  0
LTYPE
  5
41
330
5
100
AcDbSymbolTableRecord
100
AcDbLinetypeTableRecord
  2
CENTER
 70
     0
  3
Center ____ _ ____ _ ____ _ ____ _ ____ _ ____
 72
    65
 73
     4
 40
10.16
 49
6.35
 74
     0
 49
-1.27
 74
     0
 49
1.27
 74
     0
 49
-1.27
 74
     0
  0
LTYPE
  5
42
330
5
100
AcDbSymbolTableRecord
100
AcDbLinetypeTableRecord
  2
CENTERX2
 70
     0
  3
Center (2x) ________  __  ________  __  _____
 72
    65
 73
     4
 40
20.32
 49
12.7
 74
     0
 49
-2.54
 74
     0
 49
2.54
 74
     0
 49
-2.54
 74
     0
  0
LTYPE
  5
43
330
5
100
AcDbSymbolTableRecord
100
AcDbLinetypeTableRecord
  2
DOT2
 70
     0
  3
Dot (.5x) ........................................
 72
    65
 73
     2
 40
0.635
 49
0.0
 74
     0
 49
-0.635
 74
     0
  0
ENDTAB
  0
TABLE
  2
LAYER
  5
2
330
0
100
AcDbSymbolTable
 70
     1
  0
LAYER
  5
10
330
2
100
AcDbSymbolTableRecord
100
AcDbLayerTableRecord
  2
0
 70
     0
 62
     7
  6
Continuous
370
    -3
390
F
  0
ENDTAB
  0
TABLE
  2
STYLE
  5
3
330
0
100
AcDbSymbolTable
 70
     2
  0
STYLE
  5
11
330
3
100
AcDbSymbolTableRecord
100
AcDbTextStyleTableRecord
  2
Standard
 70
     0
 40
0.0
 41
1.0
 50
0.0
 71
     0
 42
3.175
  3
txt
  4

  0
STYLE
  5
158
330
3
100
AcDbSymbolTableRecord
100
AcDbTextStyleTableRecord
  2
SLDTEXTSTYLE0
 70
     0
 40
0.0
 41
0.7
 50
0.0
 71
     0
 42
0.2
  3
TXT
  4

  0
ENDTAB
  0
TABLE
  2
VIEW
  5
6
330
0
100
AcDbSymbolTable
 70
     0
  0
ENDTAB
  0
TABLE
  2
UCS
  5
7
330
0
100
AcDbSymbolTable
 70
     0
  0
ENDTAB
  0
TABLE
  2
APPID
  5
9
330
0
100
AcDbSymbolTable
 70
     1
  0
APPID
  5
12
330
9
100
AcDbSymbolTableRecord
100
AcDbRegAppTableRecord
  2
ACAD
 70
     0
  0
ENDTAB
  0
TABLE
  2
DIMSTYLE
  5
A
330
0
100
AcDbSymbolTable
 70
     1
100
AcDbDimStyleTable
  0
DIMSTYLE
105
27
330
A
100
AcDbSymbolTableRecord
100
AcDbDimStyleTableRecord
  2
ISO-25
 70
     0
 41
2.5
 42
0.625
 43
3.75
 44
1.25
 73
     0
 74
     0
 77
     1
 78
     8
140
2.5
141
2.5
143
0.0393700787
147
0.625
171
     3
172
     1
178
     0
271
     2
272
     2
274
     3
278
    44
283
     0
284
     8
340
11
  0
ENDTAB
  0
TABLE
  2
BLOCK_RECORD
  5
1
330
0
100
AcDbSymbolTable
 70
     1
  0
BLOCK_RECORD
  5
1F
330
1
100
AcDbSymbolTableRecord
100
AcDbBlockTableRecord
  2
*Model_Space
340
22
  0
BLOCK_RECORD
  5
1B
330
1
100
AcDbSymbolTableRecord
100
AcDbBlockTableRecord
  2
*Paper_Space
340
1E
  0
BLOCK_RECORD
  5
23
330
1
100
AcDbSymbolTableRecord
100
AcDbBlockTableRecord
  2
*Paper_Space0
340
26
  0
ENDTAB
  0
ENDSEC
  0
SECTION
  2
BLOCKS
  0
BLOCK
  5
20
330
1F
100
AcDbEntity
  8
0
100
AcDbBlockBegin
  2
*Model_Space
 70
     0
 10
0.0
 20
0.0
 30
0.0
  3
*Model_Space
  1

  0
ENDBLK
  5
21
330
1F
100
AcDbEntity
  8
0
100
AcDbBlockEnd
  0
BLOCK
  5
1C
330
1B
100
AcDbEntity
 67
     1
  8
0
100
AcDbBlockBegin
  2
*Paper_Space
 70
     0
 10
0.0
 20
0.0
 30
0.0
  3
*Paper_Space
  1

  0
ENDBLK
  5
1D
330
1B
100
AcDbEntity
 67
     1
  8
0
100
AcDbBlockEnd
  0
BLOCK
  5
24
330
23
100
AcDbEntity
  8
0
100
AcDbBlockBegin
  2
*Paper_Space0
 70
     0
 10
0.0
 20
0.0
 30
0.0
  3
*Paper_Space0
  1

  0
ENDBLK
  5
25
330
23
100
AcDbEntity
  8
0
100
AcDbBlockEnd
  0
ENDSEC
  0
SECTION
  2
ENTITIES
  0
CIRCLE
  5
44
330
1F
100
AcDbEntity
  8
0
  6
Continuous
 62
     7
100
AcDbCircle
 10
5.9750830565
 20
63.0787375415
 30
0.0
 40
1.5
  0
CIRCLE
  5
45
330
1F
100
AcDbEntity
  8
0
  6
Continuous
 62
     7
100
AcDbCircle
 10
5.9750830565
 20
303.0787375415
 30
0.0
 40
1.499999999999943
  0
CIRCLE
  5
46
330
1F
100
AcDbEntity
  8
0
  6
Continuous
 62
     7
100
AcDbCircle
 10
127.7750830565
 20
303.0787375415
 30
0.0
 40
1.500000000000057
  0
CIRCLE
  5
47
330
1F
100
AcDbEntity
  8
0
  6
Continuous
 62
     7
100
AcDbCircle
 10
127.7750830565
 20
63.0787375415
 30
0.0
 40
1.5
  0
LINE
  5
48
330
1F
100
AcDbEntity
  8
0
  6
Continuous
 62
     1
100
AcDbLine
 10
3.1750830565
 20
38.0787375415
 30
0.0
 11
3.1750830565
 21
328.0787375415
 31
0.0
  0
LINE
  5
49
330
1F
100
AcDbEntity
  8
0
  6
Continuous
 62
     1
100
AcDbLine
 10
3.1750830565
 20
328.0787375415
 30
0.0
 11
130.5750830565
 21
328.0787375415
 31
0.0
  0
LINE
  5
4A
330
1F
100
AcDbEntity
  8
0
  6
Continuous
 62
     1
100
AcDbLine
 10
130.5750830565
 20
328.0787375415
 30
0.0
 11
130.5750830565
 21
38.0787375415
 31
0.0
  0
LINE
  5
4B
330
1F
100
AcDbEntity
  8
0
  6
Continuous
 62
     1
100
AcDbLine
 10
130.5750830565
 20
38.0787375415
 30
0.0
 11
3.1750830565
 21
38.0787375415
 31
0.0
  0
LINE
  5
4C
330
1F
100
AcDbEntity
  8
0
  6
Continuous
 62
     1
100
AcDbLine
 10
144.9091379318
 20
327.348609458
 30
0.0
 11
144.9091379318
 21
324.5186107264
 31
0.0
  0
LINE
  5
4D
330
1F
100
AcDbEntity
  8
0
  6
Continuous
 62
     1
100
AcDbLine
 10
144.9091379318
 20
324.5186107264
 30
0.0
 11
154.9091395709
 21
324.5186107264
 31
0.0
  0
LINE
  5
4E
330
1F
100
AcDbEntity
  8
0
  6
Continuous
 62
     1
100
AcDbLine
 10
154.9091395709
 20
324.5186107264
 30
0.0
 11
154.9091395709
 21
327.348609458
 31
0.0
  0
LINE
  5
4F
330
1F
100
AcDbEntity
  8
0
  6
Continuous
 62
     1
100
AcDbLine
 10
154.9091395709
 20
327.348609458
 30
0.0
 11
164.9091393474
 21
327.348609458
 31
0.0
  0
LINE
  5
50
330
1F
100
AcDbEntity
  8
0
  6
Continuous
 62
     1
100
AcDbLine
 10
164.9091393474
 20
327.348609458
 30
0.0
 11
164.9091393474
 21
324.5186107264
 31
0.0
  0
LINE
  5
51
330
1F
100
AcDbEntity
  8
0
  6
Continuous
 62
     1
100
AcDbLine
 10
164.9091393474
 20
324.5186107264
 30
0.0
 11
174.9091391239
 21
324.5186107264
 31
0.0
  0
LINE
  5
52
330
1F
100
AcDbEntity
  8
0
  6
Continuous
 62
     1
100
AcDbLine
 10
174.9091391239
 20
324.5186107264
 30
0.0
 11
174.9091391239
 21
327.348609458
 31
0.0
  0
LINE
  5
53
330
1F
100
AcDbEntity
  8
0
  6
Continuous
 62
     1
100
AcDbLine
 10
174.9091391239
 20
327.348609458
 30
0.0
 11
184.9091389004
 21
327.348609458
 31
0.0
  0
LINE
  5
54
330
1F
100
AcDbEntity
  8
0
  6
Continuous
 62
     1
100
AcDbLine
 10
184.9091389004
 20
327.348609458
 30
0.0
 11
184.9091389004
 21
324.5186107264
 31
0.0
  0
LINE
  5
55
330
1F
100
AcDbEntity
  8
0
  6
Continuous
 62
     1
100
AcDbLine
 10
184.9091389004
 20
324.5186107264
 30
0.0
 11
194.9091389097
 21
324.5186107264
 31
0.0
  0
LINE
  5
56
330
1F
100
AcDbEntity
  8
0
  6
Continuous
 62
     1
100
AcDbLine
 10
194.9091389097
 20
324.5186107264
 30
0.0
 11
194.9091389097
 21
327.348609458
 31
0.0
  0
LINE
  5
57
330
1F
100
AcDbEntity
  8
0
  6
Continuous
 62
     1
100
AcDbLine
 10
194.9091389097
 20
327.348609458
 30
0.0
 11
204.9091393847
 21
327.348609458
 31
0.0
  0
LINE
  5
58
330
1F
100
AcDbEntity
  8
0
  6
Continuous
 62
     1
100
AcDbLine
 10
204.9091393847
 20
327.348609458
 30
0.0
 11
204.9091393847
 21
324.5186107264
 31
0.0
  0
LINE
  5
59
330
1F
100
AcDbEntity
  8
0
  6
Continuous
 62
     1
100
AcDbLine
 10
204.9091393847
 20
324.5186107264
 30
0.0
 11
214.9091382298
 21
324.5186107264
 31
0.0
  0
LINE
  5
5A
330
1F
100
AcDbEntity
  8
0
  6
Continuous
 62
     1
100
AcDbLine
 10
214.9091382298
 20
324.5186107264
 30
0.0
 11
214.9091382298
 21
327.348609458
 31
0.0
  0
LINE
  5
5B
330
1F
100
AcDbEntity
  8
0
  6
Continuous
 62
     1
100
AcDbLine
 10
214.9091382298
 20
327.348609458
 30
0.0
 11
224.9091398689
 21
327.348609458
 31
0.0
  0
LINE
  5
5C
330
1F
100
AcDbEntity
  8
0
  6
Continuous
 62
     1
100
AcDbLine
 10
224.9091398689
 20
327.348609458
 30
0.0
 11
224.9091398689
 21
324.5186107264
 31
0.0
  0
LINE
  5
5D
330
1F
100
AcDbEntity
  8
0
  6
Continuous
 62
     1
100
AcDbLine
 10
224.9091398689
 20
324.5186107264
 30
0.0
 11
234.9091377828
 21
324.5186107264
 31
0.0
  0
LINE
  5
5E
330
1F
100
AcDbEntity
  8
0
  6
Continuous
 62
     1
100
AcDbLine
 10
234.9091377828
 20
324.5186107264
 30
0.0
 11
234.9091377828
 21
327.348609458
 31
0.0
  0
LINE
  5
5F
330
1F
100
AcDbEntity
  8
0
  6
Continuous
 62
     1
100
AcDbLine
 10
234.9091377828
 20
327.348609458
 30
0.0
 11
244.9091394219
 21
327.348609458
 31
0.0
  0
LINE
  5
60
330
1F
100
AcDbEntity
  8
0
  6
Continuous
 62
     1
100
AcDbLine
 10
244.9091394219
 20
327.348609458
 30
0.0
 11
244.9091394219
 21
324.5186107264
 31
0.0
  0
LINE
  5
61
330
1F
100
AcDbEntity
  8
0
  6
Continuous
 62
     1
100
AcDbLine
 10
244.9091394219
 20
324.5186107264
 30
0.0
 11
254.9091373357
 21
324.5186107264
 31
0.0
  0
LINE
  5
62
330
1F
100
AcDbEntity
  8
0
  6
Continuous
 62
     1
100
AcDbLine
 10
254.9091373357
 20
324.5186107264
 30
0.0
 11
254.9091373357
 21
327.348609458
 31
0.0
  0
LINE
  5
63
330
1F
100
AcDbEntity
  8
0
  6
Continuous
 62
     1
100
AcDbLine
 10
254.9091373357
 20
327.348609458
 30
0.0
 11
264.9091389749
 21
327.348609458
 31
0.0
  0
LINE
  5
64
330
1F
100
AcDbEntity
  8
0
  6
Continuous
 62
     1
100
AcDbLine
 10
264.9091389749
 20
327.348609458
 30
0.0
 11
264.9091389749
 21
325.2486037121
 31
0.0
  0
LINE
  5
65
330
1F
100
AcDbEntity
  8
0
  6
Continuous
 62
     1
100
AcDbLine
 10
264.9091389749
 20
325.2486037121
 30
0.0
 11
262.0791402433
 21
325.2486037121
 31
0.0
  0
LINE
  5
66
330
1F
100
AcDbEntity
  8
0
  6
Continuous
 62
     1
100
AcDbLine
 10
262.0791402433
 20
315.2486132489
 30
0.0
 11
262.0791402433
 21
325.2486037121
 31
0.0
  0
LINE
  5
67
330
1F
100
AcDbEntity
  8
0
  6
Continuous
 62
     1
100
AcDbLine
 10
264.9091389749
 20
315.2486132489
 30
0.0
 11
262.0791402433
 21
315.2486132489
 31
0.0
  0
LINE
  5
68
330
1F
100
AcDbEntity
  8
0
  6
Continuous
 62
     1
100
AcDbLine
 10
264.9091389749
 20
315.2486132489
 30
0.0
 11
264.9091389749
 21
305.2486078844
 31
0.0
  0
LINE
  5
69
330
1F
100
AcDbEntity
  8
0
  6
Continuous
 62
     1
100
AcDbLine
 10
264.9091389749
 20
305.2486078844
 30
0.0
 11
262.0791402433
 21
305.2486078844
 31
0.0
  0
LINE
  5
6A
330
1F
100
AcDbEntity
  8
0
  6
Continuous
 62
     1
100
AcDbLine
 10
262.0791402433
 20
295.2486099706
 30
0.0
 11
262.0791402433
 21
305.2486078844
 31
0.0
  0
LINE
  5
6B
330
1F
100
AcDbEntity
  8
0
  6
Continuous
 62
     1
100
AcDbLine
 10
264.9091389749
 20
295.2486099706
 30
0.0
 11
262.0791402433
 21
295.2486099706
 31
0.0
  0
LINE
  5
6C
330
1F
100
AcDbEntity
  8
0
  6
Continuous
 62
     1
100
AcDbLine
 10
264.9091389749
 20
295.2486099706
 30
0.0
 11
264.9091389749
 21
285.2486120568
 31
0.0
  0
LINE
  5
6D
330
1F
100
AcDbEntity
  8
0
  6
Continuous
 62
     1
100
AcDbLine
 10
264.9091389749
 20
285.2486120568
 30
0.0
 11
262.0791402433
 21
285.2486120568
 31
0.0
  0
LINE
  5
6E
330
1F
100
AcDbEntity
  8
0
  6
Continuous
 62
     1
100
AcDbLine
 10
262.0791402433
 20
275.2486141429
 30
0.0
 11
262.0791402433
 21
285.2486120568
 31
0.0
  0
LINE
  5
6F
330
1F
100
AcDbEntity
  8
0
  6
Continuous
 62
     1
100
AcDbLine
 10
264.9091389749
 20
275.2486141429
 30
0.0
 11
262.0791402433
 21
275.2486141429
 31
0.0
  0
LINE
  5
70
330
1F
100
AcDbEntity
  8
0
  6
Continuous
 62
     1
100
AcDbLine
 10
264.9091389749
 20
275.2486141429
 30
0.0
 11
264.9091389749
 21
265.2486087785
 31
0.0
  0
LINE
  5
71
330
1F
100
AcDbEntity
  8
0
  6
Continuous
 62
     1
100
AcDbLine
 10
264.9091389749
 20
265.2486087785
 30
0.0
 11
262.0791402433
 21
265.2486087785
 31
0.0
  0
LINE
  5
72
330
1F
100
AcDbEntity
  8
0
  6
Continuous
 62
     1
100
AcDbLine
 10
262.0791402433
 20
265.2486087785
 30
0.0
 11
262.0791402433
 21
255.2486108647
 31
0.0
  0
LINE
  5
73
330
1F
100
AcDbEntity
  8
0
  6
Continuous
 62
     1
100
AcDbLine
 10
264.9091389749
 20
255.2486108647
 30
0.0
 11
262.0791402433
 21
255.2486108647
 31
0.0
  0
LINE
  5
74
330
1F
100
AcDbEntity
  8
0
  6
Continuous
 62
     1
100
AcDbLine
 10
264.9091389749
 20
245.2486092255
 30
0.0
 11
264.9091389749
 21
255.2486108647
 31
0.0
  0
LINE
  5
75
330
1F
100
AcDbEntity
  8
0
  6
Continuous
 62
     1
100
AcDbLine
 10
264.9091389749
 20
245.2486092255
 30
0.0
 11
262.0791402433
 21
245.2486092255
 31
0.0
  0
LINE
  5
76
330
1F
100
AcDbEntity
  8
0
  6
Continuous
 62
     1
100
AcDbLine
 10
262.0791402433
 20
245.2486092255
 30
0.0
 11
262.0791402433
 21
235.2486113117
 31
0.0
  0
LINE
  5
77
330
1F
100
AcDbEntity
  8
0
  6
Continuous
 62
     1
100
AcDbLine
 10
264.9091389749
 20
235.2486113117
 30
0.0
 11
262.0791402433
 21
235.2486113117
 31
0.0
  0
LINE
  5
78
330
1F
100
AcDbEntity
  8
0
  6
Continuous
 62
     1
100
AcDbLine
 10
264.9091389749
 20
225.2486115352
 30
0.0
 11
264.9091389749
 21
235.2486113117
 31
0.0
  0
LINE
  5
79
330
1F
100
AcDbEntity
  8
0
  6
Continuous
 62
     1
100
AcDbLine
 10
264.9091389749
 20
225.2486115352
 30
0.0
 11
262.0791402433
 21
225.2486115352
 31
0.0
  0
LINE
  5
7A
330
1F
100
AcDbEntity
  8
0
  6
Continuous
 62
     1
100
AcDbLine
 10
262.0791402433
 20
225.2486115352
 30
0.0
 11
262.0791402433
 21
215.2486098961
 31
0.0
  0
LINE
  5
7B
330
1F
100
AcDbEntity
  8
0
  6
Continuous
 62
     1
100
AcDbLine
 10
264.9091389749
 20
215.2486098961
 30
0.0
 11
262.0791402433
 21
215.2486098961
 31
0.0
  0
LINE
  5
7C
330
1F
100
AcDbEntity
  8
0
  6
Continuous
 62
     1
100
AcDbLine
 10
264.9091389749
 20
215.2486098961
 30
0.0
 11
264.9091389749
 21
213.1486106695
 31
0.0
  0
LINE
  5
7D
330
1F
100
AcDbEntity
  8
0
  6
Continuous
 62
     1
100
AcDbLine
 10
254.9091373357
 20
213.1486106695
 30
0.0
 11
264.9091389749
 21
213.1486106695
 31
0.0
  0
LINE
  5
7E
330
1F
100
AcDbEntity
  8
0
  6
Continuous
 62
     1
100
AcDbLine
 10
254.9091373357
 20
215.9786103324
 30
0.0
 11
254.9091373357
 21
213.1486106695
 31
0.0
  0
LINE
  5
7F
330
1F
100
AcDbEntity
  8
0
  6
Continuous
 62
     1
100
AcDbLine
 10
244.9091394219
 20
215.9786103324
 30
0.0
 11
254.9091373357
 21
215.9786103324
 31
0.0
  0
LINE
  5
80
330
1F
100
AcDbEntity
  8
0
  6
Continuous
 62
     1
100
AcDbLine
 10
244.9091394219
 20
213.1486106695
 30
0.0
 11
244.9091394219
 21
215.9786103324
 31
0.0
  0
LINE
  5
81
330
1F
100
AcDbEntity
  8
0
  6
Continuous
 62
     1
100
AcDbLine
 10
234.9091377828
 20
213.1486106695
 30
0.0
 11
244.9091394219
 21
213.1486106695
 31
0.0
  0
LINE
  5
82
330
1F
100
AcDbEntity
  8
0
  6
Continuous
 62
     1
100
AcDbLine
 10
234.9091377828
 20
215.9786103324
 30
0.0
 11
234.9091377828
 21
213.1486106695
 31
0.0
  0
LINE
  5
83
330
1F
100
AcDbEntity
  8
0
  6
Continuous
 62
     1
100
AcDbLine
 10
224.9091398689
 20
215.9786103324
 30
0.0
 11
234.9091377828
 21
215.9786103324
 31
0.0
  0
LINE
  5
84
330
1F
100
AcDbEntity
  8
0
  6
Continuous
 62
     1
100
AcDbLine
 10
224.9091398689
 20
213.1486106695
 30
0.0
 11
224.9091398689
 21
215.9786103324
 31
0.0
  0
LINE
  5
85
330
1F
100
AcDbEntity
  8
0
  6
Continuous
 62
     1
100
AcDbLine
 10
214.9091382298
 20
213.1486106695
 30
0.0
 11
224.9091398689
 21
213.1486106695
 31
0.0
  0
LINE
  5
86
330
1F
100
AcDbEntity
  8
0
  6
Continuous
 62
     1
100
AcDbLine
 10
214.9091382298
 20
215.9786103324
 30
0.0
 11
214.9091382298
 21
213.1486106695
 31
0.0
  0
LINE
  5
87
330
1F
100
AcDbEntity
  8
0
  6
Continuous
 62
     1
100
AcDbLine
 10
204.9091393847
 20
215.9786103324
 30
0.0
 11
214.9091382298
 21
215.9786103324
 31
0.0
  0
LINE
  5
88
330
1F
100
AcDbEntity
  8
0
  6
Continuous
 62
     1
100
AcDbLine
 10
204.9091393847
 20
213.1486106695
 30
0.0
 11
204.9091393847
 21
215.9786103324
 31
0.0
  0
LINE
  5
89
330
1F
100
AcDbEntity
  8
0
  6
Continuous
 62
     1
100
AcDbLine
 10
194.9091389097
 20
213.1486106695
 30
0.0
 11
204.9091393847
 21
213.1486106695
 31
0.0
  0
LINE
  5
8A
330
1F
100
AcDbEntity
  8
0
  6
Continuous
 62
     1
100
AcDbLine
 10
194.9091389097
 20
215.9786103324
 30
0.0
 11
194.9091389097
 21
213.1486106695
 31
0.0
  0
LINE
  5
8B
330
1F
100
AcDbEntity
  8
0
  6
Continuous
 62
     1
100
AcDbLine
 10
184.9091389004
 20
215.9786103324
 30
0.0
 11
194.9091389097
 21
215.9786103324
 31
0.0
  0
LINE
  5
8C
330
1F
100
AcDbEntity
  8
0
  6
Continuous
 62
     1
100
AcDbLine
 10
184.9091389004
 20
213.1486106695
 30
0.0
 11
184.9091389004
 21
215.9786103324
 31
0.0
  0
LINE
  5
8D
330
1F
100
AcDbEntity
  8
0
  6
Continuous
 62
     1
100
AcDbLine
 10
174.9091391239
 20
213.1486106695
 30
0.0
 11
184.9091389004
 21
213.1486106695
 31
0.0
  0
LINE
  5
8E
330
1F
100
AcDbEntity
  8
0
  6
Continuous
 62
     1
100
AcDbLine
 10
174.9091391239
 20
215.9786103324
 30
0.0
 11
174.9091391239
 21
213.1486106695
 31
0.0
  0
LINE
  5
8F
330
1F
100
AcDbEntity
  8
0
  6
Continuous
 62
     1
100
AcDbLine
 10
164.9091393474
 20
215.9786103324
 30
0.0
 11
174.9091391239
 21
215.9786103324
 31
0.0
  0
LINE
  5
90
330
1F
100
AcDbEntity
  8
0
  6
Continuous
 62
     1
100
AcDbLine
 10
164.9091393474
 20
213.1486106695
 30
0.0
 11
164.9091393474
 21
215.9786103324
 31
0.0
  0
LINE
  5
91
330
1F
100
AcDbEntity
  8
0
  6
Continuous
 62
     1
100
AcDbLine
 10
154.9091395709
 20
213.1486106695
 30
0.0
 11
164.9091393474
 21
213.1486106695
 31
0.0
  0
LINE
  5
92
330
1F
100
AcDbEntity
  8
0
  6
Continuous
 62
     1
100
AcDbLine
 10
154.9091395709
 20
215.9786103324
 30
0.0
 11
154.9091395709
 21
213.1486106695
 31
0.0
  0
LINE
  5
93
330
1F
100
AcDbEntity
  8
0
  6
Continuous
 62
     1
100
AcDbLine
 10
144.9091379318
 20
215.9786103324
 30
0.0
 11
154.9091395709
 21
215.9786103324
 31
0.0
  0
LINE
  5
94
330
1F
100
AcDbEntity
  8
0
  6
Continuous
 62
     1
100
AcDbLine
 10
144.9091379318
 20
213.1486106695
 30
0.0
 11
144.9091379318
 21
215.9786103324
 31
0.0
  0
CIRCLE
  5
95
330
1F
100
AcDbEntity
  8
0
  6
Continuous
 62
     7
100
AcDbCircle
 10
144.9091389499
 20
260.2486106445
 30
0.0
 40
1.25
  0
CIRCLE
  5
96
330
1F
100
AcDbEntity
  8
0
  6
Continuous
 62
     7
100
AcDbCircle
 10
244.9091389499
 20
260.2486106445
 30
0.0
 40
1.25
  0
CIRCLE
  5
97
330
1F
100
AcDbEntity
  8
0
  6
Continuous
 62
     7
100
AcDbCircle
 10
244.9091389499
 20
280.2486106445
 30
0.0
 40
1.25
  0
CIRCLE
  5
98
330
1F
100
AcDbEntity
  8
0
  6
Continuous
 62
     7
100
AcDbCircle
 10
144.9091389499
 20
280.2486106445
 30
0.0
 40
1.25
  0
LINE
  5
99
330
1F
100
AcDbEntity
  8
0
  6
Continuous
 62
     1
100
AcDbLine
 10
134.909140018
 20
213.1486106695
 30
0.0
 11
144.9091379318
 21
213.1486106695
 31
0.0
  0
LINE
  5
9A
330
1F
100
AcDbEntity
  8
0
  6
Continuous
 62
     1
100
AcDbLine
 10
134.909140018
 20
327.348609458
 30
0.0
 11
144.9091379318
 21
327.348609458
 31
0.0
  0
LINE
  5
9B
330
1F
100
AcDbEntity
  8
0
  6
Continuous
 62
     1
100
AcDbLine
 10
134.909140018
 20
327.348609458
 30
0.0
 11
134.909140018
 21
213.1486106695
 31
0.0
  0
LINE
  5
9C
330
1F
100
AcDbEntity
  8
0
  6
Continuous
 62
     1
100
AcDbLine
 10
245.4146434269
 20
12.4476439955
 30
0.0
 11
245.4146434269
 21
9.6176439955
 31
0.0
  0
LINE
  5
9D
330
1F
100
AcDbEntity
  8
0
  6
Continuous
 62
     1
100
AcDbLine
 10
245.4146434269
 20
9.6176439955
 30
0.0
 11
235.4146434269
 21
9.6176439955
 31
0.0
  0
LINE
  5
9E
330
1F
100
AcDbEntity
  8
0
  6
Continuous
 62
     1
100
AcDbLine
 10
235.4146434269
 20
9.6176439955
 30
0.0
 11
235.4146434269
 21
12.4476439955
 31
0.0
  0
LINE
  5
9F
330
1F
100
AcDbEntity
  8
0
  6
Continuous
 62
     1
100
AcDbLine
 10
235.4146434269
 20
12.4476439955
 30
0.0
 11
225.4146434269
 21
12.4476439955
 31
0.0
  0
LINE
  5
A0
330
1F
100
AcDbEntity
  8
0
  6
Continuous
 62
     1
100
AcDbLine
 10
225.4146434269
 20
12.4476439955
 30
0.0
 11
225.4146434269
 21
9.6176439955
 31
0.0
  0
LINE
  5
A1
330
1F
100
AcDbEntity
  8
0
  6
Continuous
 62
     1
100
AcDbLine
 10
225.4146434269
 20
9.6176439955
 30
0.0
 11
215.4146434269
 21
9.6176439955
 31
0.0
  0
LINE
  5
A2
330
1F
100
AcDbEntity
  8
0
  6
Continuous
 62
     1
100
AcDbLine
 10
215.4146434269
 20
9.6176439955
 30
0.0
 11
215.4146434269
 21
12.4476439955
 31
0.0
  0
LINE
  5
A3
330
1F
100
AcDbEntity
  8
0
  6
Continuous
 62
     1
100
AcDbLine
 10
215.4146434269
 20
12.4476439955
 30
0.0
 11
205.4146434269
 21
12.4476439955
 31
0.0
  0
LINE
  5
A4
330
1F
100
AcDbEntity
  8
0
  6
Continuous
 62
     1
100
AcDbLine
 10
205.4146434269
 20
12.4476439955
 30
0.0
 11
205.4146434269
 21
9.6176439955
 31
0.0
  0
LINE
  5
A5
330
1F
100
AcDbEntity
  8
0
  6
Continuous
 62
     1
100
AcDbLine
 10
205.4146434269
 20
9.6176439955
 30
0.0
 11
195.4146434269
 21
9.6176439955
 31
0.0
  0
LINE
  5
A6
330
1F
100
AcDbEntity
  8
0
  6
Continuous
 62
     1
100
AcDbLine
 10
195.4146434269
 20
9.6176439955
 30
0.0
 11
195.4146434269
 21
12.4476439955
 31
0.0
  0
LINE
  5
A7
330
1F
100
AcDbEntity
  8
0
  6
Continuous
 62
     1
100
AcDbLine
 10
195.4146434269
 20
12.4476439955
 30
0.0
 11
185.4146434269
 21
12.4476439955
 31
0.0
  0
LINE
  5
A8
330
1F
100
AcDbEntity
  8
0
  6
Continuous
 62
     1
100
AcDbLine
 10
185.4146434269
 20
12.4476439955
 30
0.0
 11
185.4146434269
 21
9.6176439955
 31
0.0
  0
LINE
  5
A9
330
1F
100
AcDbEntity
  8
0
  6
Continuous
 62
     1
100
AcDbLine
 10
185.4146434269
 20
9.6176439955
 30
0.0
 11
175.4146434269
 21
9.6176439955
 31
0.0
  0
LINE
  5
AA
330
1F
100
AcDbEntity
  8
0
  6
Continuous
 62
     1
100
AcDbLine
 10
175.4146434269
 20
9.6176439955
 30
0.0
 11
175.4146434269
 21
12.4476439955
 31
0.0
  0
LINE
  5
AB
330
1F
100
AcDbEntity
  8
0
  6
Continuous
 62
     1
100
AcDbLine
 10
175.4146434269
 20
12.4476439955
 30
0.0
 11
165.4146434269
 21
12.4476439955
 31
0.0
  0
LINE
  5
AC
330
1F
100
AcDbEntity
  8
0
  6
Continuous
 62
     1
100
AcDbLine
 10
165.4146434269
 20
12.4476439955
 30
0.0
 11
165.4146434269
 21
9.6176439955
 31
0.0
  0
LINE
  5
AD
330
1F
100
AcDbEntity
  8
0
  6
Continuous
 62
     1
100
AcDbLine
 10
165.4146434269
 20
9.6176439955
 30
0.0
 11
155.4146434269
 21
9.6176439955
 31
0.0
  0
LINE
  5
AE
330
1F
100
AcDbEntity
  8
0
  6
Continuous
 62
     1
100
AcDbLine
 10
155.4146434269
 20
9.6176439955
 30
0.0
 11
155.4146434269
 21
12.4476439955
 31
0.0
  0
LINE
  5
AF
330
1F
100
AcDbEntity
  8
0
  6
Continuous
 62
     1
100
AcDbLine
 10
155.4146434269
 20
12.4476439955
 30
0.0
 11
145.4146434269
 21
12.4476439955
 31
0.0
  0
LINE
  5
B0
330
1F
100
AcDbEntity
  8
0
  6
Continuous
 62
     1
100
AcDbLine
 10
145.4146434269
 20
12.4476439955
 30
0.0
 11
145.4146434269
 21
9.6176439955
 31
0.0
  0
LINE
  5
B1
330
1F
100
AcDbEntity
  8
0
  6
Continuous
 62
     1
100
AcDbLine
 10
145.4146434269
 20
9.6176439955
 30
0.0
 11
135.4146434269
 21
9.6176439955
 31
0.0
  0
LINE
  5
B2
330
1F
100
AcDbEntity
  8
0
  6
Continuous
 62
     1
100
AcDbLine
 10
135.4146434269
 20
9.6176439955
 30
0.0
 11
135.4146434269
 21
12.4476439955
 31
0.0
  0
LINE
  5
B3
330
1F
100
AcDbEntity
  8
0
  6
Continuous
 62
     1
100
AcDbLine
 10
135.4146434269
 20
12.4476439955
 30
0.0
 11
136.1446434269
 21
12.4476439955
 31
0.0
  0
LINE
  5
B4
330
1F
100
AcDbEntity
  8
0
  6
Continuous
 62
     1
100
AcDbLine
 10
136.1446434269
 20
12.4476439955
 30
0.0
 11
136.1446434269
 21
23.4448536687
 31
0.0
  0
LINE
  5
B5
330
1F
100
AcDbEntity
  8
0
  6
Continuous
 62
     1
100
AcDbLine
 10
136.1446434269
 20
23.4448536687
 30
0.0
 11
133.3146434269
 21
23.4448536687
 31
0.0
  0
LINE
  5
B6
330
1F
100
AcDbEntity
  8
0
  6
Continuous
 62
     1
100
AcDbLine
 10
133.3146434269
 20
23.4448536687
 30
0.0
 11
133.3146434269
 21
35.4448536687
 31
0.0
  0
LINE
  5
B7
330
1F
100
AcDbEntity
  8
0
  6
Continuous
 62
     1
100
AcDbLine
 10
133.3146434269
 20
35.4448536687
 30
0.0
 11
136.1446434269
 21
35.4448536687
 31
0.0
  0
LINE
  5
B8
330
1F
100
AcDbEntity
  8
0
  6
Continuous
 62
     1
100
AcDbLine
 10
136.1446434269
 20
35.4448536687
 30
0.0
 11
136.1446434269
 21
47.4448536687
 31
0.0
  0
LINE
  5
B9
330
1F
100
AcDbEntity
  8
0
  6
Continuous
 62
     1
100
AcDbLine
 10
136.1446434269
 20
47.4448536687
 30
0.0
 11
133.3146434269
 21
47.4448536687
 31
0.0
  0
LINE
  5
BA
330
1F
100
AcDbEntity
  8
0
  6
Continuous
 62
     1
100
AcDbLine
 10
133.3146434269
 20
47.4448536687
 30
0.0
 11
133.3146434269
 21
59.4448536687
 31
0.0
  0
LINE
  5
BB
330
1F
100
AcDbEntity
  8
0
  6
Continuous
 62
     1
100
AcDbLine
 10
133.3146434269
 20
59.4448536687
 30
0.0
 11
136.1446434269
 21
59.4448536687
 31
0.0
  0
LINE
  5
BC
330
1F
100
AcDbEntity
  8
0
  6
Continuous
 62
     1
100
AcDbLine
 10
244.6846434269
 20
59.4448536687
 30
0.0
 11
247.5146434269
 21
59.4448536687
 31
0.0
  0
LINE
  5
BD
330
1F
100
AcDbEntity
  8
0
  6
Continuous
 62
     1
100
AcDbLine
 10
247.5146434269
 20
59.4448536687
 30
0.0
 11
247.5146434269
 21
47.4448536687
 31
0.0
  0
LINE
  5
BE
330
1F
100
AcDbEntity
  8
0
  6
Continuous
 62
     1
100
AcDbLine
 10
247.5146434269
 20
47.4448536687
 30
0.0
 11
244.6846434269
 21
47.4448536687
 31
0.0
  0
LINE
  5
BF
330
1F
100
AcDbEntity
  8
0
  6
Continuous
 62
     1
100
AcDbLine
 10
244.6846434269
 20
47.4448536687
 30
0.0
 11
244.6846434269
 21
35.4448536687
 31
0.0
  0
LINE
  5
C0
330
1F
100
AcDbEntity
  8
0
  6
Continuous
 62
     1
100
AcDbLine
 10
244.6846434269
 20
35.4448536687
 30
0.0
 11
247.5146434269
 21
35.4448536687
 31
0.0
  0
LINE
  5
C1
330
1F
100
AcDbEntity
  8
0
  6
Continuous
 62
     1
100
AcDbLine
 10
247.5146434269
 20
35.4448536687
 30
0.0
 11
247.5146434269
 21
23.4448536687
 31
0.0
  0
LINE
  5
C2
330
1F
100
AcDbEntity
  8
0
  6
Continuous
 62
     1
100
AcDbLine
 10
247.5146434269
 20
23.4448536687
 30
0.0
 11
244.6846434269
 21
23.4448536687
 31
0.0
  0
LINE
  5
C3
330
1F
100
AcDbEntity
  8
0
  6
Continuous
 62
     1
100
AcDbLine
 10
244.6846434269
 20
23.4448536687
 30
0.0
 11
244.6846434269
 21
12.4476439955
 31
0.0
  0
LINE
  5
C4
330
1F
100
AcDbEntity
  8
0
  6
Continuous
 62
     1
100
AcDbLine
 10
244.6846434269
 20
12.4476439955
 30
0.0
 11
245.4146434269
 21
12.4476439955
 31
0.0
  0
LINE
  5
C5
330
1F
100
AcDbEntity
  8
0
  6
Continuous
 62
     1
100
AcDbLine
 10
136.1446434269
 20
70.4420633419
 30
0.0
 11
135.4146434269
 21
70.4420633419
 31
0.0
  0
LINE
  5
C6
330
1F
100
AcDbEntity
  8
0
  6
Continuous
 62
     1
100
AcDbLine
 10
135.4146434269
 20
70.4420633419
 30
0.0
 11
135.4146434269
 21
73.2720633419
 31
0.0
  0
LINE
  5
C7
330
1F
100
AcDbEntity
  8
0
  6
Continuous
 62
     1
100
AcDbLine
 10
135.4146434269
 20
73.2720633419
 30
0.0
 11
145.4146434269
 21
73.2720633419
 31
0.0
  0
LINE
  5
C8
330
1F
100
AcDbEntity
  8
0
  6
Continuous
 62
     1
100
AcDbLine
 10
145.4146434269
 20
73.2720633419
 30
0.0
 11
145.4146434269
 21
70.4420633419
 31
0.0
  0
LINE
  5
C9
330
1F
100
AcDbEntity
  8
0
  6
Continuous
 62
     1
100
AcDbLine
 10
145.4146434269
 20
70.4420633419
 30
0.0
 11
155.4146434269
 21
70.4420633419
 31
0.0
  0
LINE
  5
CA
330
1F
100
AcDbEntity
  8
0
  6
Continuous
 62
     1
100
AcDbLine
 10
155.4146434269
 20
70.4420633419
 30
0.0
 11
155.4146434269
 21
73.2720633419
 31
0.0
  0
LINE
  5
CB
330
1F
100
AcDbEntity
  8
0
  6
Continuous
 62
     1
100
AcDbLine
 10
155.4146434269
 20
73.2720633419
 30
0.0
 11
165.4146434269
 21
73.2720633419
 31
0.0
  0
LINE
  5
CC
330
1F
100
AcDbEntity
  8
0
  6
Continuous
 62
     1
100
AcDbLine
 10
165.4146434269
 20
73.2720633419
 30
0.0
 11
165.4146434269
 21
70.4420633419
 31
0.0
  0
LINE
  5
CD
330
1F
100
AcDbEntity
  8
0
  6
Continuous
 62
     1
100
AcDbLine
 10
165.4146434269
 20
70.4420633419
 30
0.0
 11
175.4146434269
 21
70.4420633419
 31
0.0
  0
LINE
  5
CE
330
1F
100
AcDbEntity
  8
0
  6
Continuous
 62
     1
100
AcDbLine
 10
215.4146434269
 20
70.4420633419
 30
0.0
 11
215.4146434269
 21
73.2720633419
 31
0.0
  0
LINE
  5
CF
330
1F
100
AcDbEntity
  8
0
  6
Continuous
 62
     1
100
AcDbLine
 10
215.4146434269
 20
73.2720633419
 30
0.0
 11
225.4146434269
 21
73.2720633419
 31
0.0
  0
LINE
  5
D0
330
1F
100
AcDbEntity
  8
0
  6
Continuous
 62
     1
100
AcDbLine
 10
225.4146434269
 20
73.2720633419
 30
0.0
 11
225.4146434269
 21
70.4420633419
 31
0.0
  0
LINE
  5
D1
330
1F
100
AcDbEntity
  8
0
  6
Continuous
 62
     1
100
AcDbLine
 10
225.4146434269
 20
70.4420633419
 30
0.0
 11
235.4146434269
 21
70.4420633419
 31
0.0
  0
LINE
  5
D2
330
1F
100
AcDbEntity
  8
0
  6
Continuous
 62
     1
100
AcDbLine
 10
235.4146434269
 20
70.4420633419
 30
0.0
 11
235.4146434269
 21
73.2720633419
 31
0.0
  0
LINE
  5
D3
330
1F
100
AcDbEntity
  8
0
  6
Continuous
 62
     1
100
AcDbLine
 10
235.4146434269
 20
73.2720633419
 30
0.0
 11
245.4146434269
 21
73.2720633419
 31
0.0
  0
LINE
  5
D4
330
1F
100
AcDbEntity
  8
0
  6
Continuous
 62
     1
100
AcDbLine
 10
245.4146434269
 20
73.2720633419
 30
0.0
 11
245.4146434269
 21
70.4420633419
 31
0.0
  0
LINE
  5
D5
330
1F
100
AcDbEntity
  8
0
  6
Continuous
 62
     1
100
AcDbLine
 10
245.4146434269
 20
70.4420633419
 30
0.0
 11
244.6846434269
 21
70.4420633419
 31
0.0
  0
LINE
  5
D6
330
1F
100
AcDbEntity
  8
0
  6
Continuous
 62
     1
100
AcDbLine
 10
244.6846434269
 20
70.4420633419
 30
0.0
 11
244.6846434269
 21
59.4448536687
 31
0.0
  0
LINE
  5
D7
330
1F
100
AcDbEntity
  8
0
  6
Continuous
 62
     1
100
AcDbLine
 10
175.4146434269
 20
70.4420633419
 30
0.0
 11
175.4146434269
 21
73.2720633419
 31
0.0
  0
LINE
  5
D8
330
1F
100
AcDbEntity
  8
0
  6
Continuous
 62
     1
100
AcDbLine
 10
175.4146434269
 20
73.2720633419
 30
0.0
 11
185.4146434269
 21
73.2720633419
 31
0.0
  0
LINE
  5
D9
330
1F
100
AcDbEntity
  8
0
  6
Continuous
 62
     1
100
AcDbLine
 10
185.4146434269
 20
73.2720633419
 30
0.0
 11
185.4146434269
 21
70.4420633419
 31
0.0
  0
LINE
  5
DA
330
1F
100
AcDbEntity
  8
0
  6
Continuous
 62
     1
100
AcDbLine
 10
185.4146434269
 20
70.4420633419
 30
0.0
 11
195.4146434269
 21
70.4420633419
 31
0.0
  0
LINE
  5
DB
330
1F
100
AcDbEntity
  8
0
  6
Continuous
 62
     1
100
AcDbLine
 10
195.4146434269
 20
70.4420633419
 30
0.0
 11
195.4146434269
 21
73.2720633419
 31
0.0
  0
LINE
  5
DC
330
1F
100
AcDbEntity
  8
0
  6
Continuous
 62
     1
100
AcDbLine
 10
195.4146434269
 20
73.2720633419
 30
0.0
 11
205.4146434269
 21
73.2720633419
 31
0.0
  0
LINE
  5
DD
330
1F
100
AcDbEntity
  8
0
  6
Continuous
 62
     1
100
AcDbLine
 10
205.4146434269
 20
73.2720633419
 30
0.0
 11
205.4146434269
 21
70.4420633419
 31
0.0
  0
LINE
  5
DE
330
1F
100
AcDbEntity
  8
0
  6
Continuous
 62
     1
100
AcDbLine
 10
205.4146434269
 20
70.4420633419
 30
0.0
 11
215.4146434269
 21
70.4420633419
 31
0.0
  0
LINE
  5
DF
330
1F
100
AcDbEntity
  8
0
  6
Continuous
 62
     1
100
AcDbLine
 10
136.1446434269
 20
59.4448536687
 30
0.0
 11
136.1446434269
 21
70.4420633419
 31
0.0
  0
LINE
  5
E0
330
1F
100
AcDbEntity
  8
0
  6
Continuous
 62
     1
100
AcDbLine
 10
229.380658538
 20
211.4729933334
 30
0.0
 11
229.380658538
 21
208.6429933334
 31
0.0
  0
LINE
  5
E1
330
1F
100
AcDbEntity
  8
0
  6
Continuous
 62
     1
100
AcDbLine
 10
217.380658538
 20
208.6429933334
 30
0.0
 11
229.380658538
 21
208.6429933334
 31
0.0
  0
LINE
  5
E2
330
1F
100
AcDbEntity
  8
0
  6
Continuous
 62
     1
100
AcDbLine
 10
217.380658538
 20
211.4729933334
 30
0.0
 11
217.380658538
 21
208.6429933334
 31
0.0
  0
LINE
  5
E3
330
1F
100
AcDbEntity
  8
0
  6
Continuous
 62
     1
100
AcDbLine
 10
217.380658538
 20
211.4729933334
 30
0.0
 11
206.3834488648
 21
211.4729933334
 31
0.0
  0
LINE
  5
E4
330
1F
100
AcDbEntity
  8
0
  6
Continuous
 62
     1
100
AcDbLine
 10
206.3834488648
 20
201.4729933334
 30
0.0
 11
206.3834488648
 21
211.4729933334
 31
0.0
  0
LINE
  5
E5
330
1F
100
AcDbEntity
  8
0
  6
Continuous
 62
     1
100
AcDbLine
 10
203.5534488648
 20
201.4729933334
 30
0.0
 11
206.3834488648
 21
201.4729933334
 31
0.0
  0
LINE
  5
E6
330
1F
100
AcDbEntity
  8
0
  6
Continuous
 62
     1
100
AcDbLine
 10
203.5534488648
 20
191.4729933334
 30
0.0
 11
203.5534488648
 21
201.4729933334
 31
0.0
  0
LINE
  5
E7
330
1F
100
AcDbEntity
  8
0
  6
Continuous
 62
     1
100
AcDbLine
 10
203.5534488648
 20
191.4729933334
 30
0.0
 11
206.3834488648
 21
191.4729933334
 31
0.0
  0
LINE
  5
E8
330
1F
100
AcDbEntity
  8
0
  6
Continuous
 62
     1
100
AcDbLine
 10
206.3834488648
 20
181.4729933334
 30
0.0
 11
206.3834488648
 21
191.4729933334
 31
0.0
  0
LINE
  5
E9
330
1F
100
AcDbEntity
  8
0
  6
Continuous
 62
     1
100
AcDbLine
 10
203.5534488648
 20
181.4729933334
 30
0.0
 11
206.3834488648
 21
181.4729933334
 31
0.0
  0
LINE
  5
EA
330
1F
100
AcDbEntity
  8
0
  6
Continuous
 62
     1
100
AcDbLine
 10
203.5534488648
 20
171.4729933334
 30
0.0
 11
203.5534488648
 21
181.4729933334
 31
0.0
  0
LINE
  5
EB
330
1F
100
AcDbEntity
  8
0
  6
Continuous
 62
     1
100
AcDbLine
 10
203.5534488648
 20
171.4729933334
 30
0.0
 11
206.3834488648
 21
171.4729933334
 31
0.0
  0
LINE
  5
EC
330
1F
100
AcDbEntity
  8
0
  6
Continuous
 62
     1
100
AcDbLine
 10
206.3834488648
 20
161.4729933334
 30
0.0
 11
206.3834488648
 21
171.4729933334
 31
0.0
  0
LINE
  5
ED
330
1F
100
AcDbEntity
  8
0
  6
Continuous
 62
     1
100
AcDbLine
 10
203.5534488648
 20
161.4729933334
 30
0.0
 11
206.3834488648
 21
161.4729933334
 31
0.0
  0
LINE
  5
EE
330
1F
100
AcDbEntity
  8
0
  6
Continuous
 62
     1
100
AcDbLine
 10
203.5534488648
 20
151.4729933334
 30
0.0
 11
203.5534488648
 21
161.4729933334
 31
0.0
  0
LINE
  5
EF
330
1F
100
AcDbEntity
  8
0
  6
Continuous
 62
     1
100
AcDbLine
 10
203.5534488648
 20
151.4729933334
 30
0.0
 11
206.3834488648
 21
151.4729933334
 31
0.0
  0
LINE
  5
F0
330
1F
100
AcDbEntity
  8
0
  6
Continuous
 62
     1
100
AcDbLine
 10
206.3834488648
 20
141.4729933334
 30
0.0
 11
206.3834488648
 21
151.4729933334
 31
0.0
  0
LINE
  5
F1
330
1F
100
AcDbEntity
  8
0
  6
Continuous
 62
     1
100
AcDbLine
 10
203.5534488648
 20
141.4729933334
 30
0.0
 11
206.3834488648
 21
141.4729933334
 31
0.0
  0
LINE
  5
F2
330
1F
100
AcDbEntity
  8
0
  6
Continuous
 62
     1
100
AcDbLine
 10
203.5534488648
 20
131.4729933334
 30
0.0
 11
203.5534488648
 21
141.4729933334
 31
0.0
  0
LINE
  5
F3
330
1F
100
AcDbEntity
  8
0
  6
Continuous
 62
     1
100
AcDbLine
 10
203.5534488648
 20
131.4729933334
 30
0.0
 11
206.3834488648
 21
131.4729933334
 31
0.0
  0
LINE
  5
F4
330
1F
100
AcDbEntity
  8
0
  6
Continuous
 62
     1
100
AcDbLine
 10
206.3834488648
 20
121.4729933334
 30
0.0
 11
206.3834488648
 21
131.4729933334
 31
0.0
  0
LINE
  5
F5
330
1F
100
AcDbEntity
  8
0
  6
Continuous
 62
     1
100
AcDbLine
 10
203.5534488648
 20
121.4729933334
 30
0.0
 11
206.3834488648
 21
121.4729933334
 31
0.0
  0
LINE
  5
F6
330
1F
100
AcDbEntity
  8
0
  6
Continuous
 62
     1
100
AcDbLine
 10
203.5534488648
 20
111.4729933334
 30
0.0
 11
203.5534488648
 21
121.4729933334
 31
0.0
  0
LINE
  5
F7
330
1F
100
AcDbEntity
  8
0
  6
Continuous
 62
     1
100
AcDbLine
 10
203.5534488648
 20
111.4729933334
 30
0.0
 11
206.3834488648
 21
111.4729933334
 31
0.0
  0
LINE
  5
F8
330
1F
100
AcDbEntity
  8
0
  6
Continuous
 62
     1
100
AcDbLine
 10
206.3834488648
 20
101.4729933334
 30
0.0
 11
206.3834488648
 21
111.4729933334
 31
0.0
  0
LINE
  5
F9
330
1F
100
AcDbEntity
  8
0
  6
Continuous
 62
     1
100
AcDbLine
 10
203.5534488648
 20
101.4729933334
 30
0.0
 11
206.3834488648
 21
101.4729933334
 31
0.0
  0
LINE
  5
FA
330
1F
100
AcDbEntity
  8
0
  6
Continuous
 62
     1
100
AcDbLine
 10
203.5534488648
 20
91.4729933334
 30
0.0
 11
203.5534488648
 21
101.4729933334
 31
0.0
  0
LINE
  5
FB
330
1F
100
AcDbEntity
  8
0
  6
Continuous
 62
     1
100
AcDbLine
 10
203.5534488648
 20
91.4729933334
 30
0.0
 11
206.3834488648
 21
91.4729933334
 31
0.0
  0
LINE
  5
FC
330
1F
100
AcDbEntity
  8
0
  6
Continuous
 62
     1
100
AcDbLine
 10
206.3834488648
 20
81.4729933334
 30
0.0
 11
206.3834488648
 21
91.4729933334
 31
0.0
  0
LINE
  5
FD
330
1F
100
AcDbEntity
  8
0
  6
Continuous
 62
     1
100
AcDbLine
 10
264.3778682112
 20
81.4729933334
 30
0.0
 11
206.3834488648
 21
81.4729933334
 31
0.0
  0
LINE
  5
FE
330
1F
100
AcDbEntity
  8
0
  6
Continuous
 62
     1
100
AcDbLine
 10
264.3778682112
 20
81.4729933334
 30
0.0
 11
264.3778682112
 21
91.4729933334
 31
0.0
  0
LINE
  5
FF
330
1F
100
AcDbEntity
  8
0
  6
Continuous
 62
     1
100
AcDbLine
 10
267.2078682112
 20
91.4729933334
 30
0.0
 11
264.3778682112
 21
91.4729933334
 31
0.0
  0
LINE
  5
100
330
1F
100
AcDbEntity
  8
0
  6
Continuous
 62
     1
100
AcDbLine
 10
267.2078682112
 20
91.4729933334
 30
0.0
 11
267.2078682112
 21
101.4729933334
 31
0.0
  0
LINE
  5
101
330
1F
100
AcDbEntity
  8
0
  6
Continuous
 62
     1
100
AcDbLine
 10
267.2078682112
 20
101.4729933334
 30
0.0
 11
264.3778682112
 21
101.4729933334
 31
0.0
  0
LINE
  5
102
330
1F
100
AcDbEntity
  8
0
  6
Continuous
 62
     1
100
AcDbLine
 10
264.3778682112
 20
101.4729933334
 30
0.0
 11
264.3778682112
 21
111.4729933334
 31
0.0
  0
LINE
  5
103
330
1F
100
AcDbEntity
  8
0
  6
Continuous
 62
     1
100
AcDbLine
 10
267.2078682112
 20
111.4729933334
 30
0.0
 11
264.3778682112
 21
111.4729933334
 31
0.0
  0
LINE
  5
104
330
1F
100
AcDbEntity
  8
0
  6
Continuous
 62
     1
100
AcDbLine
 10
267.2078682112
 20
111.4729933334
 30
0.0
 11
267.2078682112
 21
121.4729933334
 31
0.0
  0
LINE
  5
105
330
1F
100
AcDbEntity
  8
0
  6
Continuous
 62
     1
100
AcDbLine
 10
267.2078682112
 20
121.4729933334
 30
0.0
 11
264.3778682112
 21
121.4729933334
 31
0.0
  0
LINE
  5
106
330
1F
100
AcDbEntity
  8
0
  6
Continuous
 62
     1
100
AcDbLine
 10
264.3778682112
 20
121.4729933334
 30
0.0
 11
264.3778682112
 21
131.4729933334
 31
0.0
  0
LINE
  5
107
330
1F
100
AcDbEntity
  8
0
  6
Continuous
 62
     1
100
AcDbLine
 10
267.2078682112
 20
131.4729933334
 30
0.0
 11
264.3778682112
 21
131.4729933334
 31
0.0
  0
LINE
  5
108
330
1F
100
AcDbEntity
  8
0
  6
Continuous
 62
     1
100
AcDbLine
 10
267.2078682112
 20
131.4729933334
 30
0.0
 11
267.2078682112
 21
141.4729933334
 31
0.0
  0
LINE
  5
109
330
1F
100
AcDbEntity
  8
0
  6
Continuous
 62
     1
100
AcDbLine
 10
267.2078682112
 20
141.4729933334
 30
0.0
 11
264.3778682112
 21
141.4729933334
 31
0.0
  0
LINE
  5
10A
330
1F
100
AcDbEntity
  8
0
  6
Continuous
 62
     1
100
AcDbLine
 10
264.3778682112
 20
141.4729933334
 30
0.0
 11
264.3778682112
 21
151.4729933334
 31
0.0
  0
LINE
  5
10B
330
1F
100
AcDbEntity
  8
0
  6
Continuous
 62
     1
100
AcDbLine
 10
267.2078682112
 20
151.4729933334
 30
0.0
 11
264.3778682112
 21
151.4729933334
 31
0.0
  0
LINE
  5
10C
330
1F
100
AcDbEntity
  8
0
  6
Continuous
 62
     1
100
AcDbLine
 10
267.2078682112
 20
151.4729933334
 30
0.0
 11
267.2078682112
 21
161.4729933334
 31
0.0
  0
LINE
  5
10D
330
1F
100
AcDbEntity
  8
0
  6
Continuous
 62
     1
100
AcDbLine
 10
267.2078682112
 20
161.4729933334
 30
0.0
 11
264.3778682112
 21
161.4729933334
 31
0.0
  0
LINE
  5
10E
330
1F
100
AcDbEntity
  8
0
  6
Continuous
 62
     1
100
AcDbLine
 10
264.3778682112
 20
161.4729933334
 30
0.0
 11
264.3778682112
 21
171.4729933334
 31
0.0
  0
LINE
  5
10F
330
1F
100
AcDbEntity
  8
0
  6
Continuous
 62
     1
100
AcDbLine
 10
267.2078682112
 20
171.4729933334
 30
0.0
 11
264.3778682112
 21
171.4729933334
 31
0.0
  0
LINE
  5
110
330
1F
100
AcDbEntity
  8
0
  6
Continuous
 62
     1
100
AcDbLine
 10
267.2078682112
 20
171.4729933334
 30
0.0
 11
267.2078682112
 21
181.4729933334
 31
0.0
  0
LINE
  5
111
330
1F
100
AcDbEntity
  8
0
  6
Continuous
 62
     1
100
AcDbLine
 10
267.2078682112
 20
181.4729933334
 30
0.0
 11
264.3778682112
 21
181.4729933334
 31
0.0
  0
LINE
  5
112
330
1F
100
AcDbEntity
  8
0
  6
Continuous
 62
     1
100
AcDbLine
 10
264.3778682112
 20
181.4729933334
 30
0.0
 11
264.3778682112
 21
191.4729933334
 31
0.0
  0
LINE
  5
113
330
1F
100
AcDbEntity
  8
0
  6
Continuous
 62
     1
100
AcDbLine
 10
267.2078682112
 20
191.4729933334
 30
0.0
 11
264.3778682112
 21
191.4729933334
 31
0.0
  0
LINE
  5
114
330
1F
100
AcDbEntity
  8
0
  6
Continuous
 62
     1
100
AcDbLine
 10
267.2078682112
 20
191.4729933334
 30
0.0
 11
267.2078682112
 21
201.4729933334
 31
0.0
  0
LINE
  5
115
330
1F
100
AcDbEntity
  8
0
  6
Continuous
 62
     1
100
AcDbLine
 10
267.2078682112
 20
201.4729933334
 30
0.0
 11
264.3778682112
 21
201.4729933334
 31
0.0
  0
LINE
  5
116
330
1F
100
AcDbEntity
  8
0
  6
Continuous
 62
     1
100
AcDbLine
 10
264.3778682112
 20
201.4729933334
 30
0.0
 11
264.3778682112
 21
211.4729933334
 31
0.0
  0
LINE
  5
117
330
1F
100
AcDbEntity
  8
0
  6
Continuous
 62
     1
100
AcDbLine
 10
264.3778682112
 20
211.4729933334
 30
0.0
 11
253.380658538
 21
211.4729933334
 31
0.0
  0
LINE
  5
118
330
1F
100
AcDbEntity
  8
0
  6
Continuous
 62
     1
100
AcDbLine
 10
253.380658538
 20
211.4729933334
 30
0.0
 11
253.380658538
 21
208.6429933334
 31
0.0
  0
LINE
  5
119
330
1F
100
AcDbEntity
  8
0
  6
Continuous
 62
     1
100
AcDbLine
 10
253.380658538
 20
208.6429933334
 30
0.0
 11
241.380658538
 21
208.6429933334
 31
0.0
  0
LINE
  5
11A
330
1F
100
AcDbEntity
  8
0
  6
Continuous
 62
     1
100
AcDbLine
 10
241.380658538
 20
211.4729933334
 30
0.0
 11
241.380658538
 21
208.6429933334
 31
0.0
  0
LINE
  5
11B
330
1F
100
AcDbEntity
  8
0
  6
Continuous
 62
     1
100
AcDbLine
 10
241.380658538
 20
211.4729933334
 30
0.0
 11
229.380658538
 21
211.4729933334
 31
0.0
  0
LINE
  5
11C
330
1F
100
AcDbEntity
  8
0
  6
Continuous
 62
     1
100
AcDbLine
 10
159.945556144
 20
206.9446170903
 30
0.0
 11
159.945556144
 21
204.1146170903
 31
0.0
  0
LINE
  5
11D
330
1F
100
AcDbEntity
  8
0
  6
Continuous
 62
     1
100
AcDbLine
 10
147.945556144
 20
204.1146170903
 30
0.0
 11
159.945556144
 21
204.1146170903
 31
0.0
  0
LINE
  5
11E
330
1F
100
AcDbEntity
  8
0
  6
Continuous
 62
     1
100
AcDbLine
 10
147.945556144
 20
206.9446170903
 30
0.0
 11
147.945556144
 21
204.1146170903
 31
0.0
  0
LINE
  5
11F
330
1F
100
AcDbEntity
  8
0
  6
Continuous
 62
     1
100
AcDbLine
 10
147.945556144
 20
206.9446170903
 30
0.0
 11
136.9483464708
 21
206.9446170903
 31
0.0
  0
LINE
  5
120
330
1F
100
AcDbEntity
  8
0
  6
Continuous
 62
     1
100
AcDbLine
 10
136.9483464708
 20
196.9446170903
 30
0.0
 11
136.9483464708
 21
206.9446170903
 31
0.0
  0
LINE
  5
121
330
1F
100
AcDbEntity
  8
0
  6
Continuous
 62
     1
100
AcDbLine
 10
134.1183464708
 20
196.9446170903
 30
0.0
 11
136.9483464708
 21
196.9446170903
 31
0.0
  0
LINE
  5
122
330
1F
100
AcDbEntity
  8
0
  6
Continuous
 62
     1
100
AcDbLine
 10
134.1183464708
 20
186.9446170903
 30
0.0
 11
134.1183464708
 21
196.9446170903
 31
0.0
  0
LINE
  5
123
330
1F
100
AcDbEntity
  8
0
  6
Continuous
 62
     1
100
AcDbLine
 10
134.1183464708
 20
186.9446170903
 30
0.0
 11
136.9483464708
 21
186.9446170903
 31
0.0
  0
LINE
  5
124
330
1F
100
AcDbEntity
  8
0
  6
Continuous
 62
     1
100
AcDbLine
 10
136.9483464708
 20
176.9446170903
 30
0.0
 11
136.9483464708
 21
186.9446170903
 31
0.0
  0
LINE
  5
125
330
1F
100
AcDbEntity
  8
0
  6
Continuous
 62
     1
100
AcDbLine
 10
134.1183464708
 20
176.9446170903
 30
0.0
 11
136.9483464708
 21
176.9446170903
 31
0.0
  0
LINE
  5
126
330
1F
100
AcDbEntity
  8
0
  6
Continuous
 62
     1
100
AcDbLine
 10
134.1183464708
 20
166.9446170903
 30
0.0
 11
134.1183464708
 21
176.9446170903
 31
0.0
  0
LINE
  5
127
330
1F
100
AcDbEntity
  8
0
  6
Continuous
 62
     1
100
AcDbLine
 10
134.1183464708
 20
166.9446170903
 30
0.0
 11
136.9483464708
 21
166.9446170903
 31
0.0
  0
LINE
  5
128
330
1F
100
AcDbEntity
  8
0
  6
Continuous
 62
     1
100
AcDbLine
 10
136.9483464708
 20
156.9446170903
 30
0.0
 11
136.9483464708
 21
166.9446170903
 31
0.0
  0
LINE
  5
129
330
1F
100
AcDbEntity
  8
0
  6
Continuous
 62
     1
100
AcDbLine
 10
134.1183464708
 20
156.9446170903
 30
0.0
 11
136.9483464708
 21
156.9446170903
 31
0.0
  0
LINE
  5
12A
330
1F
100
AcDbEntity
  8
0
  6
Continuous
 62
     1
100
AcDbLine
 10
134.1183464708
 20
146.9446170903
 30
0.0
 11
134.1183464708
 21
156.9446170903
 31
0.0
  0
LINE
  5
12B
330
1F
100
AcDbEntity
  8
0
  6
Continuous
 62
     1
100
AcDbLine
 10
134.1183464708
 20
146.9446170903
 30
0.0
 11
136.9483464708
 21
146.9446170903
 31
0.0
  0
LINE
  5
12C
330
1F
100
AcDbEntity
  8
0
  6
Continuous
 62
     1
100
AcDbLine
 10
136.9483464708
 20
136.9446170903
 30
0.0
 11
136.9483464708
 21
146.9446170903
 31
0.0
  0
LINE
  5
12D
330
1F
100
AcDbEntity
  8
0
  6
Continuous
 62
     1
100
AcDbLine
 10
134.1183464708
 20
136.9446170903
 30
0.0
 11
136.9483464708
 21
136.9446170903
 31
0.0
  0
LINE
  5
12E
330
1F
100
AcDbEntity
  8
0
  6
Continuous
 62
     1
100
AcDbLine
 10
134.1183464708
 20
126.9446170903
 30
0.0
 11
134.1183464708
 21
136.9446170903
 31
0.0
  0
LINE
  5
12F
330
1F
100
AcDbEntity
  8
0
  6
Continuous
 62
     1
100
AcDbLine
 10
134.1183464708
 20
126.9446170903
 30
0.0
 11
136.9483464708
 21
126.9446170903
 31
0.0
  0
LINE
  5
130
330
1F
100
AcDbEntity
  8
0
  6
Continuous
 62
     1
100
AcDbLine
 10
136.9483464708
 20
116.9446170903
 30
0.0
 11
136.9483464708
 21
126.9446170903
 31
0.0
  0
LINE
  5
131
330
1F
100
AcDbEntity
  8
0
  6
Continuous
 62
     1
100
AcDbLine
 10
134.1183464708
 20
116.9446170903
 30
0.0
 11
136.9483464708
 21
116.9446170903
 31
0.0
  0
LINE
  5
132
330
1F
100
AcDbEntity
  8
0
  6
Continuous
 62
     1
100
AcDbLine
 10
134.1183464708
 20
106.9446170903
 30
0.0
 11
134.1183464708
 21
116.9446170903
 31
0.0
  0
LINE
  5
133
330
1F
100
AcDbEntity
  8
0
  6
Continuous
 62
     1
100
AcDbLine
 10
134.1183464708
 20
106.9446170903
 30
0.0
 11
136.9483464708
 21
106.9446170903
 31
0.0
  0
LINE
  5
134
330
1F
100
AcDbEntity
  8
0
  6
Continuous
 62
     1
100
AcDbLine
 10
136.9483464708
 20
96.9446170903
 30
0.0
 11
136.9483464708
 21
106.9446170903
 31
0.0
  0
LINE
  5
135
330
1F
100
AcDbEntity
  8
0
  6
Continuous
 62
     1
100
AcDbLine
 10
134.1183464708
 20
96.9446170903
 30
0.0
 11
136.9483464708
 21
96.9446170903
 31
0.0
  0
LINE
  5
136
330
1F
100
AcDbEntity
  8
0
  6
Continuous
 62
     1
100
AcDbLine
 10
134.1183464708
 20
86.9446170903
 30
0.0
 11
134.1183464708
 21
96.9446170903
 31
0.0
  0
LINE
  5
137
330
1F
100
AcDbEntity
  8
0
  6
Continuous
 62
     1
100
AcDbLine
 10
134.1183464708
 20
86.9446170903
 30
0.0
 11
136.9483464708
 21
86.9446170903
 31
0.0
  0
LINE
  5
138
330
1F
100
AcDbEntity
  8
0
  6
Continuous
 62
     1
100
AcDbLine
 10
136.9483464708
 20
76.9446170903
 30
0.0
 11
136.9483464708
 21
86.9446170903
 31
0.0
  0
LINE
  5
139
330
1F
100
AcDbEntity
  8
0
  6
Continuous
 62
     1
100
AcDbLine
 10
194.9427658172
 20
76.9446170903
 30
0.0
 11
136.9483464708
 21
76.9446170903
 31
0.0
  0
LINE
  5
13A
330
1F
100
AcDbEntity
  8
0
  6
Continuous
 62
     1
100
AcDbLine
 10
194.9427658172
 20
76.9446170903
 30
0.0
 11
194.9427658172
 21
86.9446170903
 31
0.0
  0
LINE
  5
13B
330
1F
100
AcDbEntity
  8
0
  6
Continuous
 62
     1
100
AcDbLine
 10
197.7727658172
 20
86.9446170903
 30
0.0
 11
194.9427658172
 21
86.9446170903
 31
0.0
  0
LINE
  5
13C
330
1F
100
AcDbEntity
  8
0
  6
Continuous
 62
     1
100
AcDbLine
 10
197.7727658172
 20
86.9446170903
 30
0.0
 11
197.7727658172
 21
96.9446170903
 31
0.0
  0
LINE
  5
13D
330
1F
100
AcDbEntity
  8
0
  6
Continuous
 62
     1
100
AcDbLine
 10
197.7727658172
 20
96.9446170903
 30
0.0
 11
194.9427658172
 21
96.9446170903
 31
0.0
  0
LINE
  5
13E
330
1F
100
AcDbEntity
  8
0
  6
Continuous
 62
     1
100
AcDbLine
 10
194.9427658172
 20
96.9446170903
 30
0.0
 11
194.9427658172
 21
106.9446170903
 31
0.0
  0
LINE
  5
13F
330
1F
100
AcDbEntity
  8
0
  6
Continuous
 62
     1
100
AcDbLine
 10
197.7727658172
 20
106.9446170903
 30
0.0
 11
194.9427658172
 21
106.9446170903
 31
0.0
  0
LINE
  5
140
330
1F
100
AcDbEntity
  8
0
  6
Continuous
 62
     1
100
AcDbLine
 10
197.7727658172
 20
106.9446170903
 30
0.0
 11
197.7727658172
 21
116.9446170903
 31
0.0
  0
LINE
  5
141
330
1F
100
AcDbEntity
  8
0
  6
Continuous
 62
     1
100
AcDbLine
 10
197.7727658172
 20
116.9446170903
 30
0.0
 11
194.9427658172
 21
116.9446170903
 31
0.0
  0
LINE
  5
142
330
1F
100
AcDbEntity
  8
0
  6
Continuous
 62
     1
100
AcDbLine
 10
194.9427658172
 20
116.9446170903
 30
0.0
 11
194.9427658172
 21
126.9446170903
 31
0.0
  0
LINE
  5
143
330
1F
100
AcDbEntity
  8
0
  6
Continuous
 62
     1
100
AcDbLine
 10
197.7727658172
 20
126.9446170903
 30
0.0
 11
194.9427658172
 21
126.9446170903
 31
0.0
  0
LINE
  5
144
330
1F
100
AcDbEntity
  8
0
  6
Continuous
 62
     1
100
AcDbLine
 10
197.7727658172
 20
126.9446170903
 30
0.0
 11
197.7727658172
 21
136.9446170903
 31
0.0
  0
LINE
  5
145
330
1F
100
AcDbEntity
  8
0
  6
Continuous
 62
     1
100
AcDbLine
 10
197.7727658172
 20
136.9446170903
 30
0.0
 11
194.9427658172
 21
136.9446170903
 31
0.0
  0
LINE
  5
146
330
1F
100
AcDbEntity
  8
0
  6
Continuous
 62
     1
100
AcDbLine
 10
194.9427658172
 20
136.9446170903
 30
0.0
 11
194.9427658172
 21
146.9446170903
 31
0.0
  0
LINE
  5
147
330
1F
100
AcDbEntity
  8
0
  6
Continuous
 62
     1
100
AcDbLine
 10
197.7727658172
 20
146.9446170903
 30
0.0
 11
194.9427658172
 21
146.9446170903
 31
0.0
  0
LINE
  5
148
330
1F
100
AcDbEntity
  8
0
  6
Continuous
 62
     1
100
AcDbLine
 10
197.7727658172
 20
146.9446170903
 30
0.0
 11
197.7727658172
 21
156.9446170903
 31
0.0
  0
LINE
  5
149
330
1F
100
AcDbEntity
  8
0
  6
Continuous
 62
     1
100
AcDbLine
 10
197.7727658172
 20
156.9446170903
 30
0.0
 11
194.9427658172
 21
156.9446170903
 31
0.0
  0
LINE
  5
14A
330
1F
100
AcDbEntity
  8
0
  6
Continuous
 62
     1
100
AcDbLine
 10
194.9427658172
 20
156.9446170903
 30
0.0
 11
194.9427658172
 21
166.9446170903
 31
0.0
  0
LINE
  5
14B
330
1F
100
AcDbEntity
  8
0
  6
Continuous
 62
     1
100
AcDbLine
 10
197.7727658172
 20
166.9446170903
 30
0.0
 11
194.9427658172
 21
166.9446170903
 31
0.0
  0
LINE
  5
14C
330
1F
100
AcDbEntity
  8
0
  6
Continuous
 62
     1
100
AcDbLine
 10
197.7727658172
 20
166.9446170903
 30
0.0
 11
197.7727658172
 21
176.9446170903
 31
0.0
  0
LINE
  5
14D
330
1F
100
AcDbEntity
  8
0
  6
Continuous
 62
     1
100
AcDbLine
 10
197.7727658172
 20
176.9446170903
 30
0.0
 11
194.9427658172
 21
176.9446170903
 31
0.0
  0
LINE
  5
14E
330
1F
100
AcDbEntity
  8
0
  6
Continuous
 62
     1
100
AcDbLine
 10
194.9427658172
 20
176.9446170903
 30
0.0
 11
194.9427658172
 21
186.9446170903
 31
0.0
  0
LINE
  5
14F
330
1F
100
AcDbEntity
  8
0
  6
Continuous
 62
     1
100
AcDbLine
 10
197.7727658172
 20
186.9446170903
 30
0.0
 11
194.9427658172
 21
186.9446170903
 31
0.0
  0
LINE
  5
150
330
1F
100
AcDbEntity
  8
0
  6
Continuous
 62
     1
100
AcDbLine
 10
197.7727658172
 20
186.9446170903
 30
0.0
 11
197.7727658172
 21
196.9446170903
 31
0.0
  0
LINE
  5
151
330
1F
100
AcDbEntity
  8
0
  6
Continuous
 62
     1
100
AcDbLine
 10
197.7727658172
 20
196.9446170903
 30
0.0
 11
194.9427658172
 21
196.9446170903
 31
0.0
  0
LINE
  5
152
330
1F
100
AcDbEntity
  8
0
  6
Continuous
 62
     1
100
AcDbLine
 10
194.9427658172
 20
196.9446170903
 30
0.0
 11
194.9427658172
 21
206.9446170903
 31
0.0
  0
LINE
  5
153
330
1F
100
AcDbEntity
  8
0
  6
Continuous
 62
     1
100
AcDbLine
 10
194.9427658172
 20
206.9446170903
 30
0.0
 11
183.945556144
 21
206.9446170903
 31
0.0
  0
LINE
  5
154
330
1F
100
AcDbEntity
  8
0
  6
Continuous
 62
     1
100
AcDbLine
 10
183.945556144
 20
206.9446170903
 30
0.0
 11
183.945556144
 21
204.1146170903
 31
0.0
  0
LINE
  5
155
330
1F
100
AcDbEntity
  8
0
  6
Continuous
 62
     1
100
AcDbLine
 10
183.945556144
 20
204.1146170903
 30
0.0
 11
171.945556144
 21
204.1146170903
 31
0.0
  0
LINE
  5
156
330
1F
100
AcDbEntity
  8
0
  6
Continuous
 62
     1
100
AcDbLine
 10
171.945556144
 20
206.9446170903
 30
0.0
 11
171.945556144
 21
204.1146170903
 31
0.0
  0
LINE
  5
157
330
1F
100
AcDbEntity
  8
0
  6
Continuous
 62
     1
100
AcDbLine
 10
171.945556144
 20
206.9446170903
 30
0.0
 11
159.945556144
 21
206.9446170903
 31
0.0
  0
MTEXT
  5
159
330
1F
100
AcDbEntity
  8
0
  6
Continuous
 62
     7
100
AcDbMText
 10
0.0
 20
14.4752615694
 30
0.0
 40
5.19
 41
0.0
 71
     1
 72
     1
  1
SolidWorks Educational Edition.
  7
SLDTEXTSTYLE0
 73
     1
 44
1.0
  0
MTEXT
  5
15A
330
1F
100
AcDbEntity
  8
0
  6
Continuous
 62
     7
100
AcDbMText
 10
0.0
 20
6.6902615694
 30
0.0
 40
5.19
 41
0.0
 71
     1
 72
     1
  1
For Instructional Use Only.
  7
SLDTEXTSTYLE0
 73
     1
 44
1.0
  0
ENDSEC
  0
SECTION
  2
OBJECTS
  0
DICTIONARY
  5
C
330
0
100
AcDbDictionary
281
     1
  3
ACAD_GROUP
350
D
  3
ACAD_LAYOUT
350
1A
  3
ACAD_MLINESTYLE
350
17
  3
ACAD_PLOTSETTINGS
350
19
  3
ACAD_PLOTSTYLENAME
350
E
  0
DICTIONARY
  5
D
102
{ACAD_REACTORS
330
C
102
}
330
C
100
AcDbDictionary
281
     1
  0
DICTIONARY
  5
1A
102
{ACAD_REACTORS
330
C
102
}
330
C
100
AcDbDictionary
281
     1
  3
Layout1
350
1E
  3
Layout2
350
26
  3
Model
350
22
  0
DICTIONARY
  5
17
102
{ACAD_REACTORS
330
C
102
}
330
C
100
AcDbDictionary
281
     1
  3
Standard
350
18
  0
DICTIONARY
  5
19
102
{ACAD_REACTORS
330
C
102
}
330
C
100
AcDbDictionary
281
     1
  0
ACDBDICTIONARYWDFLT
  5
E
102
{ACAD_REACTORS
330
C
102
}
330
C
100
AcDbDictionary
281
     1
  3
Normal
350
F
100
AcDbDictionaryWithDefault
340
F
  0
LAYOUT
  5
1E
102
{ACAD_REACTORS
330
1A
102
}
330
1A
100
AcDbPlotSettings
  1

  2
none_device
  4

  6

 40
0.0
 41
0.0
 42
0.0
 43
0.0
 44
0.0
 45
0.0
 46
0.0
 47
0.0
 48
0.0
 49
0.0
140
0.0
141
0.0
142
1.0
143
1.0
 70
   688
 72
     0
 73
     0
 74
     5
  7

 75
    16
147
1.0
148
0.0
149
0.0
100
AcDbLayout
  1
Layout1
 70
     1
 71
     1
 10
0.0
 20
0.0
 11
420.0
 21
297.0
 12
0.0
 22
0.0
 32
0.0
 14
1.0000000000E+20
 24
1.0000000000E+20
 34
1.0000000000E+20
 15
-1.0000000000E+20
 25
-1.0000000000E+20
 35
-1.0000000000E+20
146
0.0
 13
0.0
 23
0.0
 33
0.0
 16
1.0
 26
0.0
 36
0.0
 17
0.0
 27
1.0
 37
0.0
 76
     0
330
1B
  0
LAYOUT
  5
26
102
{ACAD_REACTORS
330
1A
102
}
330
1A
100
AcDbPlotSettings
  1

  2
none_device
  4

  6

 40
0.0
 41
0.0
 42
0.0
 43
0.0
 44
0.0
 45
0.0
 46
0.0
 47
0.0
 48
0.0
 49
0.0
140
0.0
141
0.0
142
1.0
143
1.0
 70
   688
 72
     0
 73
     0
 74
     5
  7

 75
    16
147
1.0
148
0.0
149
0.0
100
AcDbLayout
  1
Layout2
 70
     1
 71
     2
 10
0.0
 20
0.0
 11
0.0
 21
0.0
 12
0.0
 22
0.0
 32
0.0
 14
0.0
 24
0.0
 34
0.0
 15
0.0
 25
0.0
 35
0.0
146
0.0
 13
0.0
 23
0.0
 33
0.0
 16
1.0
 26
0.0
 36
0.0
 17
0.0
 27
1.0
 37
0.0
 76
     0
330
23
  0
LAYOUT
  5
22
102
{ACAD_REACTORS
330
1A
102
}
330
1A
100
AcDbPlotSettings
  1

  2
none_device
  4

  6

 40
0.0
 41
0.0
 42
0.0
 43
0.0
 44
0.0
 45
0.0
 46
0.0
 47
0.0
 48
0.0
 49
0.0
140
0.0
141
0.0
142
1.0
143
1.0
 70
  1712
 72
     0
 73
     0
 74
     0
  7

 75
     0
147
1.0
148
0.0
149
0.0
100
AcDbLayout
  1
Model
 70
     1
 71
     0
 10
0.0
 20
0.0
 11
300.0
 21
330.0
 12
0.0
 22
0.0
 32
0.0
 14
0.0
 24
0.0
 34
0.0
 15
300.0
 25
330.0
 35
0.0
146
0.0
 13
0.0
 23
0.0
 33
0.0
 16
1.0
 26
0.0
 36
0.0
 17
0.0
 27
1.0
 37
0.0
 76
     0
330
1F
331
29
  0
MLINESTYLE
  5
18
102
{ACAD_REACTORS
330
17
102
}
330
17
100
AcDbMlineStyle
  2
Standard
 70
     0
  3

 62
   256
 51
90.0
 52
90.0
 71
     2
 49
0.5
 62
   256
  6
BYLAYER
 49
-0.5
 62
   256
  6
BYLAYER
  0
ACDBPLACEHOLDER
  5
F
102
{ACAD_REACTORS
330
E
102
}
330
E
  0
ENDSEC
  0
EOF
